STARTFONT 2.1
FONT -Monotype-Times New Roman-Bold-I-Normal--17-120-100-100-P-95-iso8859-5
SIZE 12 100 100
FONTBOUNDINGBOX 23 20 -4 -4

STARTPROPERTIES 24
FOUNDRY "Monotype"
FAMILY_NAME "Times New Roman"
WEIGHT_NAME "Bold"
SLANT "I"
SETWIDTH_NAME "Normal"
ADD_STYLE_NAME ""
PIXEL_SIZE 17
POINT_SIZE 120
RESOLUTION_X 100
RESOLUTION_Y 100
SPACING "P"
AVERAGE_WIDTH 95
CHARSET_REGISTRY "iso8859"
CHARSET_ENCODING "5"
FACE_NAME "Times New Roman Bold Inclined ISO Latin Cyrillic"
_DEC_DEVICE_FONTNAMES "PS=timesnewroman-bin-latcyrillic"
COPYRIGHT "Copyright (c) 1994 Monotype Typography Ltd."
CAP_HEIGHT 13
X_HEIGHT 9
WEIGHT 10
QUAD_WIDTH 12
DEFAULT_CHAR 160
FONT_DESCENT 4
FONT_ASCENT 16
ENDPROPERTIES

CHARS 191

STARTCHAR space
ENCODING 32
SWIDTH 250 0
DWIDTH 4 0
BBX 0 0 0 0
BITMAP
ENDCHAR

STARTCHAR exclam
ENCODING 33
SWIDTH 271 0
DWIDTH 5 0
BBX 5 12 0 0
BITMAP
10
38
38
30
30
30
20
20
00
40
E0
40
ENDCHAR

STARTCHAR quotedbl
ENCODING 34
SWIDTH 552 0
DWIDTH 9 0
BBX 6 6 3 6
BITMAP
44
CC
CC
CC
CC
44
ENDCHAR

STARTCHAR numbersign
ENCODING 35
SWIDTH 667 0
DWIDTH 11 0
BBX 10 12 1 -1
BITMAP
1980
1980
1980
FFC0
FFC0
3300
3300
FFC0
FFC0
6600
6600
6600
ENDCHAR

STARTCHAR dollar
ENCODING 36
SWIDTH 500 0
DWIDTH 9 0
BBX 8 14 1 -1
BITMAP
04
1E
35
75
74
78
3C
3C
1E
2E
AE
AC
78
40
ENDCHAR

STARTCHAR percent
ENCODING 37
SWIDTH 875 0
DWIDTH 15 0
BBX 13 12 1 0
BITMAP
3018
5830
D860
D8C0
D980
D330
6658
0CD8
18D8
30D8
60D0
C060
ENDCHAR

STARTCHAR ampersand
ENCODING 38
SWIDTH 719 0
DWIDTH 12 0
BBX 12 12 1 0
BITMAP
0380
05C0
0CC0
0D80
0F00
1C00
3CF0
6640
E680
E300
F7D0
79E0
ENDCHAR

STARTCHAR quoteright
ENCODING 39
SWIDTH 271 0
DWIDTH 5 0
BBX 3 5 2 7
BITMAP
60
60
20
40
80
ENDCHAR

STARTCHAR parenleft
ENCODING 40
SWIDTH 500 0
DWIDTH 9 0
BBX 6 15 2 -3
BITMAP
04
08
10
30
60
60
C0
C0
C0
C0
C0
C0
C0
40
20
ENDCHAR

STARTCHAR parenright
ENCODING 41
SWIDTH 500 0
DWIDTH 9 0
BBX 6 15 1 -3
BITMAP
10
08
0C
0C
0C
0C
0C
0C
0C
18
18
30
20
40
80
ENDCHAR

STARTCHAR asterisk
ENCODING 42
SWIDTH 500 0
DWIDTH 9 0
BBX 6 7 2 5
BITMAP
30
30
B4
78
30
48
84
ENDCHAR

STARTCHAR plus
ENCODING 43
SWIDTH 667 0
DWIDTH 11 0
BBX 10 10 1 0
BITMAP
0C00
0C00
0C00
0C00
FFC0
FFC0
0C00
0C00
0C00
0C00
ENDCHAR

STARTCHAR comma
ENCODING 44
SWIDTH 271 0
DWIDTH 5 0
BBX 3 5 0 -3
BITMAP
60
60
20
40
80
ENDCHAR

STARTCHAR minus
ENCODING 45
SWIDTH 667 0
DWIDTH 11 0
BBX 9 2 1 4
BITMAP
FF80
FF80
ENDCHAR

STARTCHAR period
ENCODING 46
SWIDTH 271 0
DWIDTH 5 0
BBX 3 3 0 0
BITMAP
40
E0
40
ENDCHAR

STARTCHAR slash
ENCODING 47
SWIDTH 281 0
DWIDTH 5 0
BBX 5 12 0 0
BITMAP
18
18
18
30
30
30
60
60
60
C0
C0
C0
ENDCHAR

STARTCHAR zero
ENCODING 48
SWIDTH 500 0
DWIDTH 9 0
BBX 8 12 0 0
BITMAP
1C
36
67
67
E7
E7
E7
E7
E6
E6
6C
38
ENDCHAR

STARTCHAR one
ENCODING 49
SWIDTH 500 0
DWIDTH 9 0
BBX 6 12 1 0
BITMAP
0C
3C
1C
1C
38
38
38
38
70
70
70
F8
ENDCHAR

STARTCHAR two
ENCODING 50
SWIDTH 500 0
DWIDTH 9 0
BBX 8 12 -1 0
BITMAP
0E
1F
27
07
07
06
04
08
11
22
7E
FC
ENDCHAR

STARTCHAR three
ENCODING 51
SWIDTH 500 0
DWIDTH 9 0
BBX 8 12 0 0
BITMAP
0E
17
07
06
0C
3C
0E
0E
0E
0C
D8
E0
ENDCHAR

STARTCHAR four
ENCODING 52
SWIDTH 500 0
DWIDTH 9 0
BBX 8 12 0 0
BITMAP
01
03
07
0F
17
27
4E
8E
FF
FF
1C
1C
ENDCHAR

STARTCHAR five
ENCODING 53
SWIDTH 500 0
DWIDTH 9 0
BBX 8 12 0 0
BITMAP
0F
1F
20
38
7C
1E
0E
06
06
04
C8
F0
ENDCHAR

STARTCHAR six
ENCODING 54
SWIDTH 500 0
DWIDTH 9 0
BBX 9 12 0 0
BITMAP
0380
0C00
1800
3000
7E00
7700
E700
E700
E700
E600
EC00
7800
ENDCHAR

STARTCHAR seven
ENCODING 55
SWIDTH 500 0
DWIDTH 9 0
BBX 9 12 0 0
BITMAP
1F80
3F80
7F00
8200
0400
0400
0800
0800
1000
1000
2000
2000
ENDCHAR

STARTCHAR eight
ENCODING 56
SWIDTH 500 0
DWIDTH 9 0
BBX 8 12 0 0
BITMAP
1C
36
77
77
76
38
1C
6E
EE
EE
6C
38
ENDCHAR

STARTCHAR nine
ENCODING 57
SWIDTH 500 0
DWIDTH 9 0
BBX 9 12 -1 0
BITMAP
0F00
1B80
3380
7380
7380
7380
7700
3F00
0600
0C00
1800
E000
ENDCHAR

STARTCHAR colon
ENCODING 58
SWIDTH 333 0
DWIDTH 6 0
BBX 4 8 1 0
BITMAP
20
70
20
00
00
40
E0
40
ENDCHAR

STARTCHAR semicolon
ENCODING 59
SWIDTH 333 0
DWIDTH 6 0
BBX 5 11 0 -3
BITMAP
10
38
10
00
00
00
60
60
20
40
80
ENDCHAR

STARTCHAR less
ENCODING 60
SWIDTH 667 0
DWIDTH 11 0
BBX 10 9 0 0
BITMAP
00C0
07C0
1F00
7800
E000
7800
1F00
07C0
00C0
ENDCHAR

STARTCHAR equal
ENCODING 61
SWIDTH 667 0
DWIDTH 11 0
BBX 10 6 1 2
BITMAP
FFC0
FFC0
0000
0000
FFC0
FFC0
ENDCHAR

STARTCHAR greater
ENCODING 62
SWIDTH 667 0
DWIDTH 11 0
BBX 10 9 0 0
BITMAP
C000
F800
3E00
0780
01C0
0780
3E00
F800
C000
ENDCHAR

STARTCHAR question
ENCODING 63
SWIDTH 385 0
DWIDTH 7 0
BBX 6 12 1 0
BITMAP
38
6C
CC
CC
18
10
20
20
00
40
E0
40
ENDCHAR

STARTCHAR at
ENCODING 64
SWIDTH 958 0
DWIDTH 16 0
BBX 15 16 0 -4
BITMAP
03F0
0C08
1004
2002
41B2
4362
8662
8E62
8CE2
8CC4
8DD8
4EE2
4002
300C
0C30
03C0
ENDCHAR

STARTCHAR A
ENCODING 65
SWIDTH 719 0
DWIDTH 12 0
BBX 13 12 -1 0
BITMAP
0020
0060
00E0
01E0
02E0
04E0
08E0
0FE0
10E0
20E0
40E0
E1F0
ENDCHAR

STARTCHAR B
ENCODING 66
SWIDTH 667 0
DWIDTH 11 0
BBX 11 12 0 0
BITMAP
3FC0
1CE0
1CE0
1CE0
38C0
3F00
3B80
39C0
71C0
71C0
7380
FE00
ENDCHAR

STARTCHAR C
ENCODING 67
SWIDTH 719 0
DWIDTH 12 0
BBX 11 12 1 0
BITMAP
07A0
1CC0
3840
7040
7000
E000
E000
E000
E000
6080
3100
1E00
ENDCHAR

STARTCHAR D
ENCODING 68
SWIDTH 771 0
DWIDTH 13 0
BBX 12 12 0 0
BITMAP
3F80
1CE0
1C70
1C70
3870
3870
3870
3870
70E0
70C0
7180
FE00
ENDCHAR

STARTCHAR E
ENCODING 69
SWIDTH 667 0
DWIDTH 11 0
BBX 11 12 0 0
BITMAP
3FE0
1C60
1C20
1C00
3840
3F80
3880
3880
7020
7040
70C0
FFC0
ENDCHAR

STARTCHAR F
ENCODING 70
SWIDTH 604 0
DWIDTH 10 0
BBX 10 12 0 0
BITMAP
3FC0
1C40
1C40
1C00
3880
3F00
3900
3900
7000
7000
7000
F800
ENDCHAR

STARTCHAR G
ENCODING 71
SWIDTH 719 0
DWIDTH 12 0
BBX 12 12 1 0
BITMAP
03D0
0C30
3820
7020
7000
E000
E1F0
E0E0
E1C0
61C0
31C0
0F00
ENDCHAR

STARTCHAR H
ENCODING 72
SWIDTH 823 0
DWIDTH 14 0
BBX 14 12 0 0
BITMAP
3E7C
1C38
1C38
1C38
3870
3FF0
3870
3870
70E0
70E0
70E0
F9F0
ENDCHAR

STARTCHAR I
ENCODING 73
SWIDTH 385 0
DWIDTH 7 0
BBX 7 12 0 0
BITMAP
3E
1C
1C
1C
38
38
38
38
70
70
70
F8
ENDCHAR

STARTCHAR J
ENCODING 74
SWIDTH 500 0
DWIDTH 9 0
BBX 9 12 0 0
BITMAP
0F80
0700
0700
0700
0E00
0E00
0E00
0E00
1C00
DC00
D800
7000
ENDCHAR

STARTCHAR K
ENCODING 75
SWIDTH 719 0
DWIDTH 12 0
BBX 13 12 0 0
BITMAP
3E78
1C20
1C40
1C80
3900
3A00
3F00
3B80
71C0
71C0
70E0
F9F0
ENDCHAR

STARTCHAR L
ENCODING 76
SWIDTH 667 0
DWIDTH 11 0
BBX 11 12 0 0
BITMAP
3E00
1C00
1C00
1C00
3800
3800
3800
3800
7020
7040
70C0
FFC0
ENDCHAR

STARTCHAR M
ENCODING 77
SWIDTH 990 0
DWIDTH 17 0
BBX 17 12 0 0
BITMAP
3C0780
1C0F00
1C1700
1E1700
2E2E00
2E2E00
274E00
274E00
479C00
471C00
431C00
E23E00
ENDCHAR

STARTCHAR N
ENCODING 78
SWIDTH 771 0
DWIDTH 13 0
BBX 13 12 0 0
BITMAP
3838
1810
1C10
1C10
2E20
2720
2320
23A0
41C0
41C0
40C0
E040
ENDCHAR

STARTCHAR O
ENCODING 79
SWIDTH 771 0
DWIDTH 13 0
BBX 11 12 1 0
BITMAP
0F80
19C0
30E0
70E0
60E0
E0E0
E0E0
E0C0
E1C0
E180
7300
3E00
ENDCHAR

STARTCHAR P
ENCODING 80
SWIDTH 667 0
DWIDTH 11 0
BBX 11 12 0 0
BITMAP
3FC0
1CE0
1CE0
1CE0
38C0
3980
3E00
3800
7000
7000
7000
F800
ENDCHAR

STARTCHAR Q
ENCODING 81
SWIDTH 771 0
DWIDTH 13 0
BBX 12 15 0 -3
BITMAP
07C0
0CE0
1870
3870
3070
7070
7070
7060
70E0
70C0
3980
1F00
1000
7F20
8FC0
ENDCHAR

STARTCHAR R
ENCODING 82
SWIDTH 719 0
DWIDTH 12 0
BBX 12 12 0 0
BITMAP
3FC0
1CE0
1C70
1C70
3CE0
3F00
3B80
3B80
71C0
71C0
70E0
F8F0
ENDCHAR

STARTCHAR S
ENCODING 83
SWIDTH 604 0
DWIDTH 10 0
BBX 10 12 0 0
BITMAP
0F40
1CC0
3880
3880
3C00
1E00
0F00
0780
4380
4380
C700
BE00
ENDCHAR

STARTCHAR T
ENCODING 84
SWIDTH 667 0
DWIDTH 11 0
BBX 11 12 1 0
BITMAP
7FE0
8E20
8E20
0E00
1C00
1C00
1C00
1C00
3800
3800
3800
7C00
ENDCHAR

STARTCHAR U
ENCODING 85
SWIDTH 771 0
DWIDTH 13 0
BBX 12 12 1 0
BITMAP
7C70
3820
3820
3820
7040
7040
7040
E040
E080
E080
7100
3E00
ENDCHAR

STARTCHAR V
ENCODING 86
SWIDTH 719 0
DWIDTH 12 0
BBX 12 12 2 0
BITMAP
F870
7020
7040
7080
7100
7100
7200
7400
7800
7000
6000
4000
ENDCHAR

STARTCHAR W
ENCODING 87
SWIDTH 990 0
DWIDTH 17 0
BBX 17 12 2 0
BITMAP
FBE380
71C100
71C200
71C400
71C400
73C800
75D000
75D000
79E000
71C000
618000
410000
ENDCHAR

STARTCHAR X
ENCODING 88
SWIDTH 719 0
DWIDTH 12 0
BBX 14 12 -1 0
BITMAP
1F3C
0E10
0E20
0740
0780
0300
0300
0780
0B80
11C0
21C0
F3E0
ENDCHAR

STARTCHAR Y
ENCODING 89
SWIDTH 719 0
DWIDTH 12 0
BBX 11 12 2 0
BITMAP
F8E0
7040
7080
7100
3A00
3C00
3800
3800
7000
7000
7000
F800
ENDCHAR

STARTCHAR Z
ENCODING 90
SWIDTH 719 0
DWIDTH 12 0
BBX 14 12 -1 0
BITMAP
0FFC
0838
1070
00E0
01C0
0380
0700
0E00
1C00
3810
7020
FFE0
ENDCHAR

STARTCHAR bracketleft
ENCODING 91
SWIDTH 500 0
DWIDTH 9 0
BBX 7 15 1 -3
BITMAP
1E
18
18
18
30
30
30
30
60
60
60
60
C0
C0
F0
ENDCHAR

STARTCHAR backslash
ENCODING 92
SWIDTH 281 0
DWIDTH 5 0
BBX 5 12 0 0
BITMAP
C0
C0
C0
60
60
60
30
30
30
18
18
18
ENDCHAR

STARTCHAR bracketright
ENCODING 93
SWIDTH 500 0
DWIDTH 9 0
BBX 7 15 1 -3
BITMAP
1E
06
06
06
0C
0C
0C
0C
18
18
18
18
30
30
F0
ENDCHAR

STARTCHAR asciicircum
ENCODING 94
SWIDTH 510 0
DWIDTH 10 0
BBX 7 6 2 6
BITMAP
10
28
28
44
44
82
ENDCHAR

STARTCHAR underscore
ENCODING 95
SWIDTH 500 0
DWIDTH 9 0
BBX 9 1 0 -2
BITMAP
FF80
ENDCHAR

STARTCHAR quoteleft
ENCODING 96
SWIDTH 271 0
DWIDTH 5 0
BBX 3 5 2 7
BITMAP
20
40
80
C0
C0
ENDCHAR

STARTCHAR a
ENCODING 97
SWIDTH 500 0
DWIDTH 9 0
BBX 9 8 0 0
BITMAP
1B80
3700
7700
E700
EE00
EE00
EE00
7700
ENDCHAR

STARTCHAR b
ENCODING 98
SWIDTH 500 0
DWIDTH 9 0
BBX 8 12 0 0
BITMAP
78
38
38
38
76
7F
77
77
E7
E6
EC
78
ENDCHAR

STARTCHAR c
ENCODING 99
SWIDTH 437 0
DWIDTH 7 0
BBX 7 8 0 0
BITMAP
1C
36
66
E0
E0
E0
E4
78
ENDCHAR

STARTCHAR d
ENCODING 100
SWIDTH 500 0
DWIDTH 9 0
BBX 9 12 0 0
BITMAP
0780
0380
0380
0380
1F00
3700
6700
E700
EE00
EE00
EE00
7700
ENDCHAR

STARTCHAR e
ENCODING 101
SWIDTH 437 0
DWIDTH 7 0
BBX 6 8 0 0
BITMAP
18
2C
6C
E8
F0
E0
E4
78
ENDCHAR

STARTCHAR f
ENCODING 102
SWIDTH 333 0
DWIDTH 6 0
BBX 13 16 -4 -4
BITMAP
0070
00D8
0180
0380
0FC0
0700
0700
0700
0E00
0E00
0E00
0E00
1C00
1C00
D800
7000
ENDCHAR

STARTCHAR g
ENCODING 103
SWIDTH 500 0
DWIDTH 9 0
BBX 9 11 -1 -3
BITMAP
0E00
3780
7700
7700
7600
3C00
6000
7C00
FE00
8600
7C00
ENDCHAR

STARTCHAR h
ENCODING 104
SWIDTH 500 0
DWIDTH 9 0
BBX 8 12 0 0
BITMAP
78
38
38
38
76
7F
77
77
EE
EE
EE
EF
ENDCHAR

STARTCHAR i
ENCODING 105
SWIDTH 271 0
DWIDTH 5 0
BBX 5 12 0 0
BITMAP
38
38
00
00
F0
70
70
70
E0
E0
E0
F0
ENDCHAR

STARTCHAR j
ENCODING 106
SWIDTH 271 0
DWIDTH 5 0
BBX 8 16 -3 -4
BITMAP
07
07
00
00
1E
0E
0E
0E
1C
1C
1C
1C
1C
18
D0
E0
ENDCHAR

STARTCHAR k
ENCODING 107
SWIDTH 552 0
DWIDTH 9 0
BBX 9 12 0 0
BITMAP
7800
3800
3800
3800
7700
7200
7400
7800
EC00
EE80
E700
E600
ENDCHAR

STARTCHAR l
ENCODING 108
SWIDTH 271 0
DWIDTH 5 0
BBX 5 12 0 0
BITMAP
78
38
38
38
70
70
70
70
E0
E0
E0
F0
ENDCHAR

STARTCHAR m
ENCODING 109
SWIDTH 771 0
DWIDTH 13 0
BBX 12 8 0 0
BITMAP
F660
7FF0
7770
7770
EEE0
EEE0
EEE0
EEF0
ENDCHAR

STARTCHAR n
ENCODING 110
SWIDTH 500 0
DWIDTH 9 0
BBX 8 8 0 0
BITMAP
F6
7F
77
77
EE
EE
EE
EF
ENDCHAR

STARTCHAR o
ENCODING 111
SWIDTH 500 0
DWIDTH 9 0
BBX 8 8 0 0
BITMAP
1E
37
67
E7
E7
E6
EC
78
ENDCHAR

STARTCHAR p
ENCODING 112
SWIDTH 500 0
DWIDTH 9 0
BBX 10 11 -2 -3
BITMAP
3B80
1DC0
1DC0
1DC0
39C0
3980
3B00
3E00
7000
7000
F800
ENDCHAR

STARTCHAR q
ENCODING 113
SWIDTH 500 0
DWIDTH 9 0
BBX 8 11 0 -3
BITMAP
0D
37
67
E7
EE
EE
FE
6E
1C
1C
3E
ENDCHAR

STARTCHAR r
ENCODING 114
SWIDTH 385 0
DWIDTH 7 0
BBX 7 8 0 0
BITMAP
F6
7A
70
70
E0
E0
E0
E0
ENDCHAR

STARTCHAR s
ENCODING 115
SWIDTH 385 0
DWIDTH 7 0
BBX 9 8 -1 0
BITMAP
1E80
3900
3900
1C00
1C00
4E00
4E00
BC00
ENDCHAR

STARTCHAR t
ENCODING 116
SWIDTH 333 0
DWIDTH 6 0
BBX 6 10 0 0
BITMAP
08
30
FC
70
70
70
E0
E0
E8
70
ENDCHAR

STARTCHAR u
ENCODING 117
SWIDTH 500 0
DWIDTH 9 0
BBX 8 8 0 0
BITMAP
F7
77
77
77
EE
EE
FE
6F
ENDCHAR

STARTCHAR v
ENCODING 118
SWIDTH 438 0
DWIDTH 7 0
BBX 7 8 0 0
BITMAP
36
F6
72
74
78
70
60
40
ENDCHAR

STARTCHAR w
ENCODING 119
SWIDTH 667 0
DWIDTH 11 0
BBX 11 8 0 0
BITMAP
3160
F360
7720
7740
7F80
7700
6600
4400
ENDCHAR

STARTCHAR x
ENCODING 120
SWIDTH 552 0
DWIDTH 9 0
BBX 9 8 -1 0
BITMAP
1180
7A80
1A00
1C00
1C00
2D00
AF00
C600
ENDCHAR

STARTCHAR y
ENCODING 121
SWIDTH 500 0
DWIDTH 9 0
BBX 9 12 -1 -4
BITMAP
1980
7980
3880
3880
3900
3900
1A00
1C00
1800
1000
D000
E000
ENDCHAR

STARTCHAR z
ENCODING 122
SWIDTH 437 0
DWIDTH 7 0
BBX 8 9 -1 -1
BITMAP
1F
3E
44
08
10
20
46
F6
3C
ENDCHAR

STARTCHAR braceleft
ENCODING 123
SWIDTH 396 0
DWIDTH 7 0
BBX 5 15 1 -3
BITMAP
18
20
60
60
60
60
40
80
40
60
60
60
60
20
18
ENDCHAR

STARTCHAR bar
ENCODING 124
SWIDTH 219 0
DWIDTH 4 0
BBX 1 14 1 -2
BITMAP
80
80
80
80
80
80
80
80
80
80
80
80
80
80
ENDCHAR

STARTCHAR braceright
ENCODING 125
SWIDTH 396 0
DWIDTH 7 0
BBX 5 15 0 -3
BITMAP
C0
20
30
30
30
30
10
08
10
30
30
30
30
20
C0
ENDCHAR

STARTCHAR asciitilde
ENCODING 126
SWIDTH 667 0
DWIDTH 10 0
BBX 10 3 0 3
BITMAP
3840
7F80
8700
ENDCHAR

STARTCHAR space
ENCODING 160
SWIDTH 250 0
DWIDTH 5 0
BBX 0 0 0 0
BITMAP
ENDCHAR

STARTCHAR afii10023
ENCODING 161
SWIDTH 667 0
DWIDTH 11 0
BBX 11 15 0 0
BITMAP
06C0
06C0
0000
3FE0
1C60
1C20
1C00
3840
3F80
3880
3880
7020
7040
70C0
FFC0
ENDCHAR

STARTCHAR afii10051
ENCODING 162
SWIDTH 820 0
DWIDTH 14 0
BBX 12 12 1 0
BITMAP
7FE0
4E20
8E20
0E00
1DE0
1E70
1C70
1C70
3870
3860
38E0
7D80
ENDCHAR

STARTCHAR afii10052
ENCODING 163
SWIDTH 634 0
DWIDTH 11 0
BBX 11 15 0 0
BITMAP
00C0
0180
0000
3FE0
1C20
1C20
1C00
3800
3800
3800
3800
7000
7000
7000
F800
ENDCHAR

STARTCHAR afii10053
ENCODING 164
SWIDTH 695 0
DWIDTH 12 0
BBX 12 12 1 0
BITMAP
03D0
0E60
1C20
3800
7000
7F00
E000
E000
E000
E080
7300
3C00
ENDCHAR

STARTCHAR afii10054
ENCODING 165
SWIDTH 604 0
DWIDTH 10 0
BBX 10 12 0 0
BITMAP
0F40
1CC0
3880
3880
3C00
1E00
0F00
0780
4380
4380
C700
BE00
ENDCHAR

STARTCHAR afii10055
ENCODING 166
SWIDTH 385 0
DWIDTH 7 0
BBX 7 12 0 0
BITMAP
3E
1C
1C
1C
38
38
38
38
70
70
70
F8
ENDCHAR

STARTCHAR afii10056
ENCODING 167
SWIDTH 385 0
DWIDTH 7 0
BBX 8 15 0 0
BITMAP
1B
1B
00
3E
1C
1C
1C
38
38
38
38
70
70
70
F8
ENDCHAR

STARTCHAR afii10057
ENCODING 168
SWIDTH 500 0
DWIDTH 9 0
BBX 9 12 0 0
BITMAP
0F80
0700
0700
0700
0E00
0E00
0E00
0E00
1C00
DC00
D800
7000
ENDCHAR

STARTCHAR afii10058
ENCODING 169
SWIDTH 948 0
DWIDTH 16 0
BBX 16 12 -1 0
BITMAP
07F8
0270
0270
0270
04E0
04FE
04E7
04E7
09C7
09C7
D1CE
E3F8
ENDCHAR

STARTCHAR afii10059
ENCODING 170
SWIDTH 1011 0
DWIDTH 17 0
BBX 16 12 0 0
BITMAP
3EF8
1C70
1C70
1C70
38E0
3FFE
38E7
38E7
71C7
71C7
71CE
FBF8
ENDCHAR

STARTCHAR afii10060
ENCODING 171
SWIDTH 804 0
DWIDTH 14 0
BBX 12 12 1 0
BITMAP
7FE0
8E20
8E20
0E00
1DE0
1E70
1C70
1C70
38E0
38E0
38E0
7DF0
ENDCHAR

STARTCHAR afii10061
ENCODING 172
SWIDTH 717 0
DWIDTH 12 0
BBX 12 15 0 0
BITMAP
0060
00C0
0000
3E30
1C50
1C80
1C80
3900
3A00
3F00
3B80
71C0
71C0
70E0
F9F0
ENDCHAR

STARTCHAR hyphen
ENCODING 173
SWIDTH 333 0
DWIDTH 6 0
BBX 5 2 0 3
BITMAP
F8
F8
ENDCHAR

STARTCHAR afii10062
ENCODING 174
SWIDTH 711 0
DWIDTH 12 0
BBX 11 15 1 0
BITMAP
0CC0
0780
0000
F8E0
7040
7040
3880
3880
3880
1900
1E00
0E00
C400
C800
7000
ENDCHAR

STARTCHAR afii10145
ENCODING 175
SWIDTH 808 0
DWIDTH 14 0
BBX 14 15 0 -3
BITMAP
3E7C
1C38
1C38
1C38
3870
3870
3870
3870
70E0
70E0
70E0
FFF0
0600
0400
0400
ENDCHAR

STARTCHAR afii10017
ENCODING 176
SWIDTH 719 0
DWIDTH 12 0
BBX 13 12 -1 0
BITMAP
0020
0060
00E0
01E0
02E0
04E0
08E0
0FE0
10E0
20E0
40E0
E1F0
ENDCHAR

STARTCHAR afii10018
ENCODING 177
SWIDTH 667 0
DWIDTH 11 0
BBX 11 12 0 0
BITMAP
3FE0
1C20
1C20
1C00
3800
3F80
39C0
39C0
71C0
71C0
7380
FE00
ENDCHAR

STARTCHAR afii10019
ENCODING 178
SWIDTH 667 0
DWIDTH 11 0
BBX 11 12 0 0
BITMAP
3FC0
1CE0
1CE0
1CE0
38C0
3F00
3B80
39C0
71C0
71C0
7380
FE00
ENDCHAR

STARTCHAR afii10020
ENCODING 179
SWIDTH 619 0
DWIDTH 11 0
BBX 11 12 0 0
BITMAP
3FE0
1C20
1C20
1C00
3800
3800
3800
3800
7000
7000
7000
F800
ENDCHAR

STARTCHAR afii10021
ENCODING 180
SWIDTH 707 0
DWIDTH 12 0
BBX 14 15 -2 -3
BITMAP
03FC
0138
0138
0138
0270
0270
0270
0470
04E0
08E0
10E0
7FF0
6030
4020
8020
ENDCHAR

STARTCHAR afii10022
ENCODING 181
SWIDTH 667 0
DWIDTH 11 0
BBX 11 12 0 0
BITMAP
3FE0
1C60
1C20
1C00
3840
3F80
3880
3880
7020
7040
70C0
FFC0
ENDCHAR

STARTCHAR afii10024
ENCODING 182
SWIDTH 953 0
DWIDTH 16 0
BBX 18 12 -1 0
BITMAP
0CF8C0
0E71C0
027200
027200
02E400
03F800
0CEC00
18EC00
39CE00
39CE00
71CE00
E3E700
ENDCHAR

STARTCHAR afii10025
ENCODING 183
SWIDTH 538 0
DWIDTH 9 0
BBX 9 12 -1 0
BITMAP
1700
1B80
2380
0300
0200
1E00
0700
0700
0700
0600
8E00
7800
ENDCHAR

STARTCHAR afii10026
ENCODING 184
SWIDTH 812 0
DWIDTH 14 0
BBX 14 12 0 0
BITMAP
3E7C
1C38
1C78
1CB8
3970
3970
3A70
3A70
74E0
78E0
70E0
F9F0
ENDCHAR

STARTCHAR afii10027
ENCODING 185
SWIDTH 812 0
DWIDTH 14 0
BBX 14 16 0 0
BITMAP
0210
0330
01E0
0000
3E7C
1C38
1C78
1CB8
3970
3970
3A70
3A70
74E0
78E0
70E0
F9F0
ENDCHAR

STARTCHAR afii10028
ENCODING 186
SWIDTH 717 0
DWIDTH 12 0
BBX 12 12 0 0
BITMAP
3E30
1C50
1C80
1C80
3900
3A00
3F00
3B80
71C0
71C0
70E0
F9F0
ENDCHAR

STARTCHAR afii10029
ENCODING 187
SWIDTH 723 0
DWIDTH 12 0
BBX 13 12 -1 0
BITMAP
07F8
0270
0270
0270
04E0
04E0
04E0
04E0
09C0
09C0
D1C0
63E0
ENDCHAR

STARTCHAR afii10030
ENCODING 188
SWIDTH 990 0
DWIDTH 17 0
BBX 17 12 0 0
BITMAP
3C0780
1C0F00
1C1700
1E1700
2E2E00
2E2E00
274E00
274E00
479C00
471C00
431C00
E23E00
ENDCHAR

STARTCHAR afii10031
ENCODING 189
SWIDTH 823 0
DWIDTH 14 0
BBX 14 12 0 0
BITMAP
3E7C
1C38
1C38
1C38
3870
3FF0
3870
3870
70E0
70E0
70E0
F9F0
ENDCHAR

STARTCHAR afii10032
ENCODING 190
SWIDTH 771 0
DWIDTH 13 0
BBX 11 12 1 0
BITMAP
0F80
19C0
30E0
70E0
60E0
E0E0
E0E0
E0C0
E1C0
E180
7300
3E00
ENDCHAR

STARTCHAR afii10033
ENCODING 191
SWIDTH 811 0
DWIDTH 14 0
BBX 14 12 0 0
BITMAP
3FFC
1C38
1C38
1C38
3870
3870
3870
3870
70E0
70E0
70E0
F9F0
ENDCHAR

STARTCHAR afii10034
ENCODING 192
SWIDTH 667 0
DWIDTH 11 0
BBX 11 12 0 0
BITMAP
3FC0
1CE0
1CE0
1CE0
38C0
3980
3E00
3800
7000
7000
7000
F800
ENDCHAR

STARTCHAR afii10035
ENCODING 193
SWIDTH 719 0
DWIDTH 12 0
BBX 11 12 1 0
BITMAP
07A0
1CC0
3840
7040
7000
E000
E000
E000
E000
6080
3100
1E00
ENDCHAR

STARTCHAR afii10036
ENCODING 194
SWIDTH 667 0
DWIDTH 11 0
BBX 11 12 1 0
BITMAP
7FE0
8E20
8E20
0E00
1C00
1C00
1C00
1C00
3800
3800
3800
7C00
ENDCHAR

STARTCHAR afii10037
ENCODING 195
SWIDTH 711 0
DWIDTH 12 0
BBX 11 12 1 0
BITMAP
F8E0
7040
7040
3880
3880
3880
1900
1E00
0E00
C400
C800
7000
ENDCHAR

STARTCHAR afii10038
ENCODING 196
SWIDTH 862 0
DWIDTH 15 0
BBX 13 12 1 0
BITMAP
07C0
0380
1FF0
33B8
6738
E738
E738
E730
EE60
7FC0
0E00
1F00
ENDCHAR

STARTCHAR afii10039
ENCODING 197
SWIDTH 719 0
DWIDTH 12 0
BBX 14 12 -1 0
BITMAP
1F3C
0E10
0E20
0740
0780
0300
0300
0780
0B80
11C0
21C0
F3E0
ENDCHAR

STARTCHAR afii10040
ENCODING 198
SWIDTH 808 0
DWIDTH 14 0
BBX 14 15 0 -3
BITMAP
3E7C
1C38
1C38
1C38
3870
3870
3870
3870
70E0
70E0
70E0
FFF0
0030
0010
0010
ENDCHAR

STARTCHAR afii10041
ENCODING 199
SWIDTH 749 0
DWIDTH 13 0
BBX 11 12 2 0
BITMAP
FBE0
71C0
71C0
71C0
E380
E780
7B80
0380
0700
0700
0700
0F80
ENDCHAR

STARTCHAR afii10042
ENCODING 200
SWIDTH 1162 0
DWIDTH 20 0
BBX 19 12 0 0
BITMAP
3EFBE0
1C71C0
1C71C0
1C71C0
38E380
38E380
38E380
38E380
71C700
71C700
71C700
FFFF80
ENDCHAR

STARTCHAR afii10043
ENCODING 201
SWIDTH 1162 0
DWIDTH 20 0
BBX 19 15 0 -3
BITMAP
3EFBE0
1C71C0
1C71C0
1C71C0
38E380
38E380
38E380
38E380
71C700
71C700
71C700
FFFF80
000180
000100
000100
ENDCHAR

STARTCHAR afii10044
ENCODING 202
SWIDTH 738 0
DWIDTH 13 0
BBX 12 12 0 0
BITMAP
7F00
4E00
8E00
0E00
1C00
1FE0
1C70
1C70
3870
3870
38E0
7F80
ENDCHAR

STARTCHAR afii10045
ENCODING 203
SWIDTH 998 0
DWIDTH 17 0
BBX 17 12 0 0
BITMAP
3E0F80
1C0700
1C0700
1C0700
380E00
3F8E00
39CE00
39CE00
71DC00
71DC00
739C00
FE3E00
ENDCHAR

STARTCHAR afii10046
ENCODING 204
SWIDTH 662 0
DWIDTH 11 0
BBX 10 12 0 0
BITMAP
3E00
1C00
1C00
1C00
3800
3F80
39C0
39C0
71C0
71C0
7380
FE00
ENDCHAR

STARTCHAR afii10047
ENCODING 205
SWIDTH 693 0
DWIDTH 12 0
BBX 11 12 0 0
BITMAP
2F00
31C0
20E0
00E0
00E0
1FE0
00E0
01C0
01C0
8380
4700
3C00
ENDCHAR

STARTCHAR afii10048
ENCODING 206
SWIDTH 1118 0
DWIDTH 19 0
BBX 18 12 0 0
BITMAP
3E1F00
1C3380
1C61C0
1CE1C0
38C1C0
3FC1C0
39C1C0
39C180
71C380
71C300
70E600
F87C00
ENDCHAR

STARTCHAR afii10049
ENCODING 207
SWIDTH 708 0
DWIDTH 12 0
BBX 13 12 -1 0
BITMAP
03F8
0770
0E70
0E70
0EE0
03E0
0EE0
1CE0
39C0
39C0
71C0
E3E0
ENDCHAR

STARTCHAR afii10065
ENCODING 208
SWIDTH 500 0
DWIDTH 9 0
BBX 9 8 0 0
BITMAP
1B80
3700
7700
E700
EE00
EE00
EE00
7700
ENDCHAR

STARTCHAR afii10066
ENCODING 209
SWIDTH 495 0
DWIDTH 9 0
BBX 9 12 0 0
BITMAP
0080
0780
0F00
1000
3E00
3700
6700
E700
E700
E600
EC00
7800
ENDCHAR

STARTCHAR afii10067
ENCODING 210
SWIDTH 458 0
DWIDTH 8 0
BBX 8 8 0 0
BITMAP
1E
37
76
FC
EE
EE
EC
78
ENDCHAR

STARTCHAR afii10068
ENCODING 211
SWIDTH 398 0
DWIDTH 7 0
BBX 7 8 0 0
BITMAP
1C
2E
0E
18
60
E0
E4
78
ENDCHAR

STARTCHAR afii10069
ENCODING 212
SWIDTH 496 0
DWIDTH 9 0
BBX 8 12 0 0
BITMAP
08
04
06
07
1F
37
67
E7
E7
E6
EC
78
ENDCHAR

STARTCHAR afii10070
ENCODING 213
SWIDTH 437 0
DWIDTH 7 0
BBX 6 8 0 0
BITMAP
18
2C
6C
E8
F0
E0
E4
78
ENDCHAR

STARTCHAR afii10072
ENCODING 214
SWIDTH 982 0
DWIDTH 17 0
BBX 16 8 0 0
BITMAP
38C6
5CDB
1D9B
1FF8
19B8
D9B8
D33A
631C
ENDCHAR

STARTCHAR afii10073
ENCODING 215
SWIDTH 416 0
DWIDTH 7 0
BBX 7 8 -1 0
BITMAP
3C
2E
0E
38
1C
1C
98
70
ENDCHAR

STARTCHAR afii10074
ENCODING 216
SWIDTH 500 0
DWIDTH 9 0
BBX 8 8 0 0
BITMAP
F7
77
77
77
EE
EE
FE
6F
ENDCHAR

STARTCHAR afii10075
ENCODING 217
SWIDTH 500 0
DWIDTH 9 0
BBX 8 12 0 0
BITMAP
33
1E
0C
00
F7
77
77
77
EE
EE
FE
6F
ENDCHAR

STARTCHAR afii10076
ENCODING 218
SWIDTH 493 0
DWIDTH 8 0
BBX 8 8 0 0
BITMAP
F3
75
74
78
EE
EE
E7
E7
ENDCHAR

STARTCHAR afii10077
ENCODING 219
SWIDTH 482 0
DWIDTH 8 0
BBX 9 8 -1 0
BITMAP
3F80
1700
1700
1700
2E00
2E00
AE00
CF00
ENDCHAR

STARTCHAR afii10078
ENCODING 220
SWIDTH 652 0
DWIDTH 11 0
BBX 12 8 -2 0
BITMAP
0C70
3CF0
1CF0
1D70
1EE0
2EE0
A4E0
C4F0
ENDCHAR

STARTCHAR afii10079
ENCODING 221
SWIDTH 512 0
DWIDTH 9 0
BBX 8 8 0 0
BITMAP
F7
77
77
7F
EE
EE
EE
EF
ENDCHAR

STARTCHAR afii10080
ENCODING 222
SWIDTH 500 0
DWIDTH 9 0
BBX 8 8 0 0
BITMAP
1E
37
67
E7
E7
E6
EC
78
ENDCHAR

STARTCHAR afii10081
ENCODING 223
SWIDTH 500 0
DWIDTH 9 0
BBX 8 8 0 0
BITMAP
F6
7F
77
77
EE
EE
EE
EF
ENDCHAR

STARTCHAR afii10082
ENCODING 224
SWIDTH 500 0
DWIDTH 9 0
BBX 10 11 -2 -3
BITMAP
3B80
1DC0
1DC0
1DC0
39C0
3980
3B00
3E00
7000
7000
F800
ENDCHAR

STARTCHAR afii10083
ENCODING 225
SWIDTH 437 0
DWIDTH 7 0
BBX 7 8 0 0
BITMAP
1C
36
66
E0
E0
E0
E4
78
ENDCHAR

STARTCHAR afii10084
ENCODING 226
SWIDTH 771 0
DWIDTH 13 0
BBX 12 8 0 0
BITMAP
F660
7FF0
7770
7770
EEE0
EEE0
EEE0
EEF0
ENDCHAR

STARTCHAR afii10085
ENCODING 227
SWIDTH 500 0
DWIDTH 9 0
BBX 9 12 -1 -4
BITMAP
1980
7980
3880
3880
3900
3900
1A00
1C00
1800
1000
D000
E000
ENDCHAR

STARTCHAR afii10086
ENCODING 228
SWIDTH 714 0
DWIDTH 12 0
BBX 12 15 0 -3
BITMAP
0180
0780
0380
0700
1FE0
2770
6770
E770
EE70
EE60
EE40
7F80
1C00
1C00
3E00
ENDCHAR

STARTCHAR afii10087
ENCODING 229
SWIDTH 552 0
DWIDTH 9 0
BBX 9 8 -1 0
BITMAP
1180
7A80
1A00
1C00
1C00
2D00
AF00
C600
ENDCHAR

STARTCHAR afii10088
ENCODING 230
SWIDTH 501 0
DWIDTH 9 0
BBX 8 11 0 -3
BITMAP
F7
77
77
77
EE
EE
FE
6F
0C
06
1C
ENDCHAR

STARTCHAR afii10089
ENCODING 231
SWIDTH 486 0
DWIDTH 8 0
BBX 8 8 -1 0
BITMAP
F7
77
77
7F
77
0E
0E
0F
ENDCHAR

STARTCHAR afii10090
ENCODING 232
SWIDTH 776 0
DWIDTH 13 0
BBX 12 8 0 0
BITMAP
F770
7770
7770
7770
EEE0
EEE0
FFE0
66F0
ENDCHAR

STARTCHAR afii10091
ENCODING 233
SWIDTH 776 0
DWIDTH 13 0
BBX 12 11 0 -3
BITMAP
F770
7770
7770
7770
EEE0
EEE0
FFE0
66F0
00C0
0060
01C0
ENDCHAR

STARTCHAR afii10092
ENCODING 234
SWIDTH 523 0
DWIDTH 9 0
BBX 8 8 0 0
BITMAP
7C
B8
B8
3E
77
77
76
3C
ENDCHAR

STARTCHAR afii10093
ENCODING 235
SWIDTH 667 0
DWIDTH 11 0
BBX 10 8 0 0
BITMAP
F3C0
71C0
71C0
7DC0
EF80
EF80
EF80
73C0
ENDCHAR

STARTCHAR afii10094
ENCODING 236
SWIDTH 449 0
DWIDTH 8 0
BBX 7 8 0 0
BITMAP
F0
70
70
7C
EE
EE
EC
78
ENDCHAR

STARTCHAR afii10095
ENCODING 237
SWIDTH 415 0
DWIDTH 7 0
BBX 7 8 -1 0
BITMAP
3C
2E
0E
3E
0E
0C
98
70
ENDCHAR

STARTCHAR afii10096
ENCODING 238
SWIDTH 693 0
DWIDTH 12 0
BBX 12 8 0 0
BITMAP
F1C0
7370
7670
7E70
EE70
EE60
EEC0
E780
ENDCHAR

STARTCHAR afii10097
ENCODING 239
SWIDTH 494 0
DWIDTH 8 0
BBX 9 8 -2 0
BITMAP
0F80
3B80
3B80
3B80
1F80
3700
7700
E780
ENDCHAR

STARTCHAR afii61352
ENCODING 240
SWIDTH 1000 0
DWIDTH 17 0
BBX 17 12 0 0
BITMAP
070C00
031C00
031000
07A300
05A580
05AD80
09AD80
09CD80
09CD00
098600
D08000
E09F00
ENDCHAR

STARTCHAR afii10071
ENCODING 241
SWIDTH 437 0
DWIDTH 7 0
BBX 7 11 0 0
BITMAP
36
36
00
18
2C
6C
E8
F0
E0
E4
78
ENDCHAR

STARTCHAR afii10099
ENCODING 242
SWIDTH 472 0
DWIDTH 9 0
BBX 8 15 0 -3
BITMAP
78
38
7E
38
76
7F
77
77
EE
EE
EE
EE
0C
08
10
ENDCHAR

STARTCHAR afii10100
ENCODING 243
SWIDTH 406 0
DWIDTH 7 0
BBX 8 11 -1 0
BITMAP
03
06
00
7F
39
38
38
70
70
70
F8
ENDCHAR

STARTCHAR afii10101
ENCODING 244
SWIDTH 426 0
DWIDTH 7 0
BBX 8 8 0 0
BITMAP
1D
32
60
F8
E0
E0
E8
70
ENDCHAR

STARTCHAR afii10102
ENCODING 245
SWIDTH 385 0
DWIDTH 7 0
BBX 9 8 -1 0
BITMAP
1E80
3900
3900
1C00
1C00
4E00
4E00
BC00
ENDCHAR

STARTCHAR afii10103
ENCODING 246
SWIDTH 271 0
DWIDTH 5 0
BBX 5 12 0 0
BITMAP
38
38
00
00
F0
70
70
70
E0
E0
E0
F0
ENDCHAR

STARTCHAR afii10104
ENCODING 247
SWIDTH 271 0
DWIDTH 5 0
BBX 6 12 0 0
BITMAP
6C
6C
00
00
F0
70
70
70
E0
E0
E0
F0
ENDCHAR

STARTCHAR afii10105
ENCODING 248
SWIDTH 271 0
DWIDTH 5 0
BBX 8 16 -3 -4
BITMAP
07
07
00
00
1E
0E
0E
0E
1C
1C
1C
1C
1C
18
D0
E0
ENDCHAR

STARTCHAR afii10106
ENCODING 249
SWIDTH 679 0
DWIDTH 12 0
BBX 12 8 -1 0
BITMAP
0700
0F00
1700
17E0
2E70
2E70
EE70
C7C0
ENDCHAR

STARTCHAR afii10107
ENCODING 250
SWIDTH 709 0
DWIDTH 12 0
BBX 11 8 0 0
BITMAP
F700
7700
77C0
7EE0
EEE0
EEE0
EEC0
EF80
ENDCHAR

STARTCHAR afii10108
ENCODING 251
SWIDTH 500 0
DWIDTH 9 0
BBX 8 12 0 0
BITMAP
78
38
7E
38
76
7F
77
77
EE
EE
EE
EF
ENDCHAR

STARTCHAR afii10109
ENCODING 252
SWIDTH 495 0
DWIDTH 8 0
BBX 8 11 0 0
BITMAP
06
0C
00
F3
75
74
78
EE
EE
E7
E7
ENDCHAR

STARTCHAR section
ENCODING 253
SWIDTH 604 0
DWIDTH 10 0
BBX 10 16 0 -4
BITMAP
0780
0CC0
18C0
1800
0C00
1E00
3300
3300
3300
3300
1E00
0C00
0600
C600
CC00
7800
ENDCHAR

STARTCHAR afii10110
ENCODING 254
SWIDTH 500 0
DWIDTH 9 0
BBX 9 15 -1 -4
BITMAP
0C80
0F00
0000
1980
7980
3880
3880
3900
3900
1A00
1C00
1800
1000
D000
E000
ENDCHAR

STARTCHAR afii10193
ENCODING 255
SWIDTH 501 0
DWIDTH 9 0
BBX 8 11 0 -3
BITMAP
F7
77
77
77
EE
EE
FE
6F
60
30
E0
ENDCHAR
ENDFONT
